<svg width="20" height="20" viewBox="0 0 20 20" fill="none" xmlns="http://www.w3.org/2000/svg">
<path d="M10 0C4.48602 0 0 4.48602 0 10C0 15.5136 4.48602 20 10 20C15.5136 20 20 15.5136 20 10C20 4.48602 15.5144 0 10 0ZM12.4869 10.3521H10.86C10.86 12.9513 10.86 16.1508 10.86 16.1508H8.44921C8.44921 16.1508 8.44921 12.9824 8.44921 10.3521H7.30323V8.30259H8.44921V6.97696C8.44921 6.02755 8.90035 4.54403 10.8821 4.54403L12.6686 4.55087V6.54032C12.6686 6.54032 11.583 6.54032 11.3719 6.54032C11.1609 6.54032 10.8608 6.64585 10.8608 7.09861V8.30299H12.6976L12.4869 10.3521Z" fill="white" fill-opacity="0.6"/>
</svg>
