<svg width="20" height="20" viewBox="0 0 20 20" fill="none" xmlns="http://www.w3.org/2000/svg">
<path d="M10 0C4.4775 0 0 4.4775 0 10C0 15.5225 4.4775 20 10 20C15.5225 20 20 15.5225 20 10C20 4.47624 15.5225 0 10 0ZM10.78 12.7037C10.0487 12.6475 9.74251 12.285 9.16998 11.9362C8.85499 13.5887 8.46999 15.1738 7.32998 16C6.97746 13.5037 7.84622 11.6288 8.24998 9.6375C7.5625 8.47876 8.33249 6.15 9.78247 6.72375C11.5662 7.42999 8.23622 11.0275 10.4725 11.4775C12.8062 11.9462 13.76 7.42626 12.3125 5.95626C10.22 3.83375 6.22497 5.9075 6.71624 8.94628C6.83623 9.68878 7.60249 9.91379 7.0225 10.94C5.68375 10.645 5.28376 9.58751 5.33501 8.18001C5.41753 5.87627 7.40502 4.26375 9.39877 4.04C11.92 3.75749 14.285 4.965 14.6113 7.33623C14.98 10.0125 13.4737 12.9125 10.78 12.7037Z" fill="white" fill-opacity="0.6"/>
</svg>
